<?xml version="1.0" encoding="UTF-8" standalone="no"?>
<svg
   aria-hidden="true"
   focusable="false"
   data-prefix="far"
   data-icon="kiss-wink-heart"
   class="svg-inline--fa fa-kiss-wink-heart fa-w-16"
   role="img"
   viewBox="0 0 600 600"
   version="1.1"
   id="svg4"
   sodipodi:docname="favicon.svg"
   width="600"
   height="600"
   inkscape:version="1.1.1 (1:1.1+202109281949+c3084ef5ed)"
   inkscape:export-filename="/home/max/projects/src/github.com/rasaford/liebhab/server/liebhab/static/favicon.png"
   inkscape:export-xdpi="28.799999"
   inkscape:export-ydpi="28.799999"
   xmlns:inkscape="http://www.inkscape.org/namespaces/inkscape"
   xmlns:sodipodi="http://sodipodi.sourceforge.net/DTD/sodipodi-0.dtd"
   xmlns="http://www.w3.org/2000/svg"
   xmlns:svg="http://www.w3.org/2000/svg">
  <defs
     id="defs8" />
  <sodipodi:namedview
     id="namedview6"
     pagecolor="#ffffff"
     bordercolor="#666666"
     borderopacity="1.0"
     inkscape:pageshadow="2"
     inkscape:pageopacity="0.0"
     inkscape:pagecheckerboard="0"
     showgrid="false"
     inkscape:zoom="0.39401315"
     inkscape:cx="286.79246"
     inkscape:cy="645.91752"
     inkscape:window-width="1026"
     inkscape:window-height="1033"
     inkscape:window-x="894"
     inkscape:window-y="0"
     inkscape:window-maximized="0"
     inkscape:current-layer="svg4"
     width="500px" />
  <path
     fill="currentColor"
     d="m 358.79132,347.58373 c 0,-19.2 -28.8,-41.5 -71.5,-44 -3.8,-0.4 -7.4,2.4 -8.2,6.2 -0.9,3.8 1.1,7.7 4.7,9.2 l 16.9,7.2 c 13,5.5 20.8,13.5 20.8,21.5 0,8 -7.8,16 -20.7,21.5 l -17,7.2 c -5.7,2.4 -6,12.2 0,14.8 l 16.9,7.2 c 13,5.5 20.8,13.5 20.8,21.5 0,8 -7.8,16 -20.7,21.5 l -17,7.2 c -3.6,1.5 -5.6,5.4 -4.7,9.2 0.8,3.6 4.1,6.2 7.8,6.2 h 0.5 c 42.8,-2.5 71.5,-24.8 71.5,-44 0,-13 -13.4,-27.3 -35.2,-36 21.7,-9.1 35.1,-23.4 35.1,-36.4 z m 70.5,-83.5 9.5,8.5 c 3.8,3.3 9.3,4 13.7,1.6 4.4,-2.4 6.9,-7.4 6.1,-12.4 -4,-25.2 -34.2,-42.1 -59.8,-42.1 -25.6,0 -55.9,16.9 -59.8,42.1 -0.8,5 1.7,10 6.1,12.4 5.8,3.1 11.2,0.7 13.7,-1.6 l 9.5,-8.5 c 14.8,-13.2 46.2,-13.2 61,0 z m -238.5,-16.5 c 0,17.7 14.3,32 32,32 17.7,0 32,-14.3 32,-32 0,-17.7 -14.3,-32 -32,-32 -17.7,0 -32,14.3 -32,32 z m 365.1,194 c -8,-20.8 -31.5,-31.5 -53.1,-25.9 l -8.4,2.2 -2.3,-8.4 c -5.9,-21.4 -27,-36.5 -49,-33 -25.2,4 -40.6,28.6 -34,52.6 l 22.9,82.6 c 1.5,5.3 7,8.5 12.4,7.1 l 83,-21.5 c 24.1,-6.3 37.7,-31.8 28.5,-55.7 z m -167.1,33.8 c -26.1,12.5 -55.2,19.7 -86,19.7 -110.3,0 -200,-89.7 -200,-200 0,-110.3 89.7,-199.999995 200,-199.999995 110.3,0 200,89.699995 200,199.999995 0,22.1 -3.7,43.3 -10.4,63.2 9,6.4 17,14.2 22.6,23.9 6.4,0.1 12.6,1.4 18.6,2.9 10.9,-27.9 17.1,-58.2 17.1,-90 0.1,-137 -110.9,-247.999995 -247.9,-247.999995 -137,0 -247.999999,110.999995 -247.999999,247.999995 0,137 110.999999,248 247.999999,248 35.4,0 68.9,-7.5 99.4,-20.9 -2.5,-7.3 4.3,17.2 -13.4,-46.8 z"
     id="path2"
     style="fill:#e83283;fill-opacity:1" />
</svg>
